<svg height="458pt" viewBox="-52 0 458 458.4" width="458pt" xmlns="http://www.w3.org/2000/svg"><path d="m116.511719 228.699219c0 7.734375-6.265625 14-14 14-7.730469 0-14-6.265625-14-14 0-7.730469 6.269531-14 14-14 7.734375 0 14 6.269531 14 14zm0 0"/><path d="m266.511719 228.699219c0 7.734375-6.265625 14-14 14-7.730469 0-14-6.265625-14-14 0-7.730469 6.269531-14 14-14 7.734375 0 14 6.269531 14 14zm0 0"/><path d="m354.8125 425.800781-25.398438-292h-66.902343v-48.800781c0-46.945312-38.054688-85-85-85-46.941407 0-85 38.054688-85 85v48.800781h-66.800781l-25.398438 292c-.730469 8.378907 2.09375 16.679688 7.777344 22.878907 5.6875 6.195312 13.710937 9.722656 22.121094 9.71875h294.703124c8.410157.003906 16.4375-3.523438 22.121094-9.71875 5.683594-6.199219 8.507813-14.5 7.777344-22.878907zm-242.300781-340.800781c0-35.898438 29.101562-65 65-65 35.898437 0 65 29.101562 65 65v48.800781h-130zm-10 177.699219c-18.777344 0-34-15.222657-34-34 0-18.777344 15.222656-34 34-34 18.777343 0 34 15.222656 34 34-.054688 18.753906-15.242188 33.945312-34 34zm150 0c-18.777344 0-34-15.222657-34-34 0-18.777344 15.222656-34 34-34 18.777343 0 34 15.222656 34 34-.054688 18.753906-15.242188 33.945312-34 34zm0 0"/></svg>